<?xml version="1.0" encoding="utf-8"?>
<!-- Generator: Adobe Illustrator 23.0.0, SVG Export Plug-In . SVG Version: 6.00 Build 0)  -->
<svg version="1.1" id="Capa_1" xmlns="http://www.w3.org/2000/svg" xmlns:xlink="http://www.w3.org/1999/xlink" x="0px" y="0px"
	 viewBox="0 0 48 48" style="enable-background:new 0 0 48 48;" xml:space="preserve">
<style type="text/css">
	.st0{fill:#FF060A;}
</style>
<g id="Layer_1">
</g>
<g id="medium-box">
</g>
<g id="minuse">
</g>
<g id="timer">
</g>
<g id="drawer-2">
</g>
<g id="trash-box">
</g>
<g id="book-label">
</g>
<g id="folder-label">
</g>
<g id="page-back">
</g>
<g id="close-page_1_">
</g>
<g id="pages">
</g>
<g id="list">
</g>
<g id="wave">
</g>
<g id="close-page">
</g>
<g id="add-page">
</g>
<g id="code">
</g>
<g id="shift-mode">
</g>
<g id="bookmarks_1_">
</g>
<g id="bookmarks">
</g>
<g id="open-pages">
</g>
<g id="note">
</g>
<g id="locater">
</g>
<g id="navigater">
</g>
<g id="alarm">
</g>
<g id="clock">
</g>
<g id="time-3">
</g>
<g id="time-1">
</g>
<g id="time">
</g>
<g id="downloads">
</g>
<g id="uploads">
</g>
<g id="drawer-1">
</g>
<g id="mail_drawer">
</g>
<g id="drawer">
</g>
<g id="mail_1_">
</g>
<g id="mail-open">
</g>
<g id="open">
</g>
<g id="card">
</g>
<g id="mails">
</g>
<g id="mail">
</g>
<g id="drag-l-t">
</g>
<g id="comment">
</g>
<g id="folder">
</g>
<g id="trash">
</g>
<g id="report-flag">
</g>
<g id="setting-roll">
</g>
<g id="spects">
</g>
<g id="search_1_">
</g>
<g id="game-2">
</g>
<g id="game">
</g>
<g id="unloack">
</g>
<g id="loack">
</g>
<g id="settings-ui">
</g>
<g id="abacuse">
</g>
<g id="browser-check-box">
</g>
<g id="browser-reload">
</g>
<g id="browser-check">
</g>
<g id="browser-close">
</g>
<g id="browser-inus">
</g>
<g id="browser-add">
</g>
<g id="flowtting">
</g>
<g id="drag">
</g>
<g id="popup">
</g>
<g id="latter">
</g>
<g id="details">
</g>
<g id="blocks">
</g>
<g id="locate">
</g>
<g id="parabolla">
</g>
<g id="check-box">
</g>
<g id="slide-nav">
</g>
<g id="share">
</g>
<g id="profile">
</g>
<g id="settings">
</g>
<g id="expand">
</g>
<g id="pause">
</g>
<g id="player">
</g>
<g id="imager">
</g>
<g id="slider">
</g>
<g id="slide-count">
</g>
<g id="progress-bar">
</g>
<g id="graph">
</g>
<g id="statistics">
</g>
<g id="cloud-reload">
</g>
<g id="cloud-down">
</g>
<g id="cloud-up">
</g>
<g id="cloud">
</g>
<g id="masonary">
</g>
<g id="column">
</g>
<g id="grid-block">
</g>
<g id="horizontal">
</g>
<g id="_x35_-column">
</g>
<g id="_x31_-column">
</g>
<g id="_x33_-column">
</g>
<g id="sidebar_1_">
</g>
<g id="favorite">
</g>
<g id="load">
</g>
<g id="search-list">
</g>
<g id="search">
</g>
<g id="browser_1_">
</g>
<g id="change-mode">
</g>
<g id="tick">
</g>
<g>
	<g>
		<g>
			<path class="st0" d="M47.1,22.9h-2.6c-0.5,0-0.9,0.4-0.9,1c0,0.5,0.4,1,0.9,1h2.6c0.5,0,0.9-0.4,0.9-1S47.6,22.9,47.1,22.9z"/>
		</g>
	</g>
	<g>
		<g>
			<path class="st0" d="M47,17.8c-0.3-0.5-0.8-0.6-1.3-0.4l-1.7,1c-0.4,0.3-0.6,0.9-0.3,1.3c0.2,0.3,0.5,0.5,0.8,0.5
				c0.2,0,0.3,0,0.5-0.1l1.7-1C47.1,18.9,47.2,18.3,47,17.8z"/>
		</g>
	</g>
	<g>
		<g>
			<path class="st0" d="M46.6,28.7l-1.7-1c-0.4-0.3-1-0.1-1.3,0.4c-0.3,0.5-0.1,1,0.3,1.3l1.7,1c0.1,0.1,0.3,0.1,0.5,0.1
				c0.3,0,0.6-0.2,0.8-0.5C47.2,29.5,47.1,28.9,46.6,28.7z"/>
		</g>
	</g>
	<g>
		<g>
			<path class="st0" d="M39.8,10.6c-0.9-4.1-2.2-6.1-3.8-6.1c-0.3,0-0.6,0.1-0.9,0.2L0.6,19.5C0.2,19.7,0,20,0,20.4v6.9
				c0,0.4,0.2,0.7,0.6,0.9l5.1,2.2c0,0,0,0,0,0l2.4,1v6c0,1.5,1.2,2.7,2.7,2.7h8.5c1.5,0,2.7-1.2,2.7-2.7v-0.1L35,43.1
				c0.3,0.1,0.6,0.2,0.9,0.2c1.7,0,2.9-2,3.8-6.1c0.8-3.6,1.2-8.3,1.2-13.3C41,18.9,40.6,14.2,39.8,10.6z M20.1,37.5
				c0,0.5-0.4,0.8-0.8,0.8h-8.5c-0.4,0-0.8-0.4-0.8-0.8v-5.2l10.1,4.4L20.1,37.5L20.1,37.5z M6.9,28.9v-5c0-0.5-0.4-1-0.9-1
				c-0.5,0-0.9,0.4-0.9,1v4.2l-3.2-1.4v-5.6L33,7.7c-0.3,0.8-0.6,1.8-0.8,2.9c0,0.1-0.1,0.3-0.1,0.4l-10.6,4.1
				c-0.5,0.2-0.7,0.7-0.5,1.2c0.1,0.4,0.5,0.6,0.9,0.6c0.1,0,0.2,0,0.3-0.1l9.6-3.7c-0.5,3.1-0.7,6.8-0.7,10.7c0,5,0.4,9.7,1.2,13.3
				c0.3,1.1,0.5,2.1,0.8,2.9L6.9,28.9z M32.8,20.4c1.7,0.3,2.9,1.8,2.9,3.6c0,1.8-1.3,3.3-2.9,3.6c-0.1-1.2-0.1-2.4-0.1-3.6
				C32.8,22.7,32.8,21.5,32.8,20.4z M38,36.7c-0.9,3.8-1.8,4.7-2,4.7c0,0,0,0,0,0c0,0,0,0,0,0l0,0c-0.3-0.2-1.1-1.2-1.9-4.6
				c-0.5-2.1-0.8-4.6-1-7.3c2.6-0.4,4.7-2.7,4.7-5.5c0-2.8-2-5.1-4.7-5.5c0.2-2.8,0.5-5.3,1-7.4c0.8-3.4,1.6-4.4,1.9-4.6l0.1,0
				c0,0,0,0,0,0c0.2,0,1.1,0.8,2,4.7c0.8,3.4,1.2,8,1.2,12.8S38.7,33.3,38,36.7z"/>
		</g>
	</g>
	<g>
		<g>
			<path class="st0" d="M18.7,17.2c-0.2-0.5-0.7-0.7-1.2-0.6l0,0c-0.5,0.2-0.7,0.7-0.5,1.2c0.1,0.4,0.5,0.6,0.9,0.6
				c0.1,0,0.2,0,0.3-0.1l0,0C18.6,18.3,18.9,17.7,18.7,17.2z"/>
		</g>
	</g>
</g>
</svg>
