<?xml version="1.0" encoding="utf-8"?>
<!-- Generator: Adobe Illustrator 23.0.0, SVG Export Plug-In . SVG Version: 6.00 Build 0)  -->
<svg version="1.1" id="Capa_1" xmlns="http://www.w3.org/2000/svg" xmlns:xlink="http://www.w3.org/1999/xlink" x="0px" y="0px"
	 viewBox="0 0 512 512" style="enable-background:new 0 0 512 512;" xml:space="preserve">
<style type="text/css">
	.st0{fill:#FF0097;}
</style>
<polygon class="st0" points="274.3,86.5 274.3,106.4 256,120.8 256,86.5 "/>
<rect x="92.1" y="431.4" class="st0" width="78.7" height="18.3"/>
<rect x="92.1" y="396.9" class="st0" width="78.7" height="18.3"/>
<rect x="92.1" y="362.4" class="st0" width="78.7" height="18.3"/>
<path class="st0" d="M326,405.5v44.2h-35.6V345.1H326v44.2c-0.2,0-0.4,0-0.5,0c-2.1,0-4.2,0.9-5.7,2.4s-2.4,3.6-2.4,5.7
	s0.9,4.2,2.4,5.7s3.6,2.4,5.7,2.4C325.7,405.5,325.8,405.5,326,405.5z"/>
<path d="M506,164.6v43.1c0,3.1-1.8,5.9-4.5,7.3c-1.1,0.5-2.3,0.8-3.5,0.8c-1.8,0-3.6-0.6-5-1.7l-4.1-3.3v238.9h9.2
	c4.5,0,8.1,3.6,8.1,8.1s-3.6,8.1-8.1,8.1h-483c-4.5,0-8.1-3.6-8.1-8.1s3.6-8.1,8.1-8.1h9.2V366l-4.1,3.3c-1.5,1.1-3.2,1.7-5,1.7
	c-1.2,0-2.4-0.3-3.5-0.8C8.8,368.9,7,366,7,362.9v-43.1c0-2.5,1.1-4.8,3.1-6.4l105.7-83.3c9.2-7.3,22.1-7.3,31.3,0l75.4,59.4v-78.8
	l-4.2,3.3c-2.4,1.9-5.7,2.3-8.5,0.9c-2.8-1.3-4.6-4.2-4.6-7.3v-43.1c0-2.5,1.1-4.8,3.1-6.3l31.4-24.8v-55c0-4.5,3.6-8.1,8.1-8.1
	h34.5c4.5,0,8.1,3.6,8.1,8.1v15.2l49.5-39c9.2-7.3,22.1-7.3,31.3,0l131.6,103.7C504.9,159.8,506,162.1,506,164.6z M489.8,191.1
	v-22.5L361.3,67.3c-3.3-2.6-8-2.6-11.3,0L221.5,168.6v22.5L350.6,89.3c1.5-1.2,3.2-1.7,5-1.7s3.5,0.6,5,1.7L489.8,191.1z
	 M472.6,449.7V198.1L355.7,106l-116.9,92.1v251.6h35.6V337.1c0-4.5,3.6-8.1,8.1-8.1h51.7c4.5,0,8.1,3.6,8.1,8.1v112.6H472.6z
	 M326,449.7v-44.2c-0.2,0-0.4,0-0.5,0c-2.1,0-4.2-0.9-5.7-2.4s-2.4-3.6-2.4-5.7s0.9-4.2,2.4-5.7s3.6-2.4,5.7-2.4c0.2,0,0.4,0,0.5,0
	v-44.2h-35.6v104.5H326V449.7z M274.3,106.4V86.5H256v34.3L274.3,106.4z M222.6,449.7v-96.4l-91.1-71.8l-91.1,71.8v96.4H76v-95.4
	c0-4.5,3.6-8.1,8.1-8.1h94.8c4.5,0,8.1,3.6,8.1,8.1v95.4L222.6,449.7L222.6,449.7z M222.6,332.7v-22.5l-85.4-67.3
	c-3.3-2.6-8-2.6-11.3,0L23.2,323.7v22.5l103.3-81.4c2.9-2.3,7.1-2.3,10,0L222.6,332.7z M170.8,449.7v-18.3H92.1v18.3H170.8z
	 M170.8,415.2v-18.3H92.1v18.3H170.8z M170.8,380.7v-18.3H92.1v18.3H170.8z"/>
<path d="M437,337.1v69c0,4.5-3.6,8.1-8.1,8.1h-51.7c-4.5,0-8.1-3.6-8.1-8.1v-69c0-4.5,3.6-8.1,8.1-8.1h51.7
	C433.4,329,437,332.6,437,337.1z M420.9,398v-27h-35.6v27H420.9z M420.9,354.9v-9.7h-35.6v9.7H420.9z"/>
<path d="M437,216.4v69c0,4.5-3.6,8.1-8.1,8.1h-51.7c-4.5,0-8.1-3.6-8.1-8.1v-69c0-4.5,3.6-8.1,8.1-8.1h51.7
	C433.4,208.3,437,211.9,437,216.4z M420.9,277.3v-26.9h-35.6v26.9H420.9z M420.9,234.1v-9.7h-35.6v9.7H420.9z"/>
<path d="M342.2,216.4v69c0,4.5-3.6,8.1-8.1,8.1h-51.7c-4.5,0-8.1-3.6-8.1-8.1v-69c0-4.5,3.6-8.1,8.1-8.1h51.7
	C338.6,208.3,342.2,211.9,342.2,216.4z M326,277.3v-26.9h-35.6v26.9H326z M326,234.1v-9.7h-35.6v9.7H326z"/>
</svg>
