<?xml version="1.0" encoding="utf-8"?>
<!-- Generator: Adobe Illustrator 22.1.0, SVG Export Plug-In . SVG Version: 6.00 Build 0)  -->
<svg version="1.1" id="Capa_1" xmlns="http://www.w3.org/2000/svg" xmlns:xlink="http://www.w3.org/1999/xlink" x="0px" y="0px"
	 viewBox="0 0 492.1 492.1" style="enable-background:new 0 0 492.1 492.1;" xml:space="preserve">
<style type="text/css">
	.st0{stroke:#FFFFFF;stroke-width:6;stroke-miterlimit:10;}
</style>
<path class="st0" d="M440.4,0H172.9c-8.9,0-15.7,6.8-15.7,15.7v24H51.7c-8.9,0-15.7,6.8-15.7,15.7v233.5c0,6.8,4.2,12.5,11,14.6
	c1.6,0.5,3.1,1,4.7,1c4.7,0,9.4-2.1,12.5-6.3l53.8-72.1h196.4c8.9,0,15.7-6.8,15.7-15.7V197h43.9l53.8,71.6
	c3.1,4.2,7.8,6.3,12.5,6.3c1.6,0,3.1,0,5.2-1c6.3-2.1,10.4-8.4,10.4-14.6V15.7C456.1,6.8,449.3,0,440.4,0z M298.8,194.9H110.2
	c-4.7,0-9.4,2.1-12.5,6.3l-30.3,40.8V71.1h231.4V194.9z M424.8,212.1l-30.3-40.2c-3.1-4.2-7.8-6.3-12.5-6.3h-51.7V55.4
	c0-8.9-6.8-15.7-15.7-15.7H188.6v-8.4h236.1L424.8,212.1L424.8,212.1z"/>
<g>
	<path class="st0" d="M366.2,397.6c-34,0-61.1-27.2-61.1-61.1s27.2-61.1,61.1-61.1s61.1,27.2,61.1,61.1S400.2,397.6,366.2,397.6z
		 M366.2,306.7c-16.2,0-29.8,13.6-29.8,29.8s13.6,29.8,29.8,29.8s29.8-13.6,29.8-29.8S382.4,306.7,366.2,306.7z"/>
	<path class="st0" d="M439.4,492.1H293.6c-8.9,0-15.7-6.8-15.7-15.7v-3.1c0-48.6,38.7-88.3,86.7-88.8h3.1
		c47.5,1,86.2,40.2,86.7,87.2l0.5,2.1c0.5,4.7-0.5,9.4-3.7,12.5C448.3,490.1,444.1,492.1,439.4,492.1z M310.9,460.8h111.3
		c-5.7-25.1-27.7-44.4-54.3-44.9h-2.6C338.5,416.4,316.1,435.2,310.9,460.8z"/>
</g>
<g>
	<path class="st0" d="M125.9,397.6c-34,0-61.1-27.2-61.1-61.1s27.2-61.1,61.1-61.1s61.1,27.2,61.1,61.1S159.9,397.6,125.9,397.6z
		 M125.9,306.7c-16.2,0-29.8,13.6-29.8,29.8s13.6,29.8,29.8,29.8s29.8-13.6,29.8-29.8S142.1,306.7,125.9,306.7z"/>
	<path class="st0" d="M199.1,492.1H53.8c-8.9,0-15.7-6.8-15.7-15.7v-3.1c0-48.6,38.7-88.3,86.7-88.8h3.1c48.1,1,86.7,41.3,86.7,88.8
		v3.1C214.7,485.4,207.9,492.1,199.1,492.1z M71.1,460.8h111.3c-5.7-25.1-27.7-44.4-54.3-44.9h-2.6
		C98.7,416.4,76.3,435.2,71.1,460.8z"/>
</g>
<g>
	<path class="st0" d="M178.2,127.5h-63.7c-8.9,0-15.7-6.8-15.7-15.7s6.8-15.7,15.7-15.7h63.7c8.9,0,15.7,6.8,15.7,15.7
		S187,127.5,178.2,127.5z"/>
	<path class="st0" d="M255.5,171.4H114.4c-8.9,0-15.7-6.8-15.7-15.7c0-8.9,6.8-15.7,15.7-15.7h141.1c8.9,0,15.7,6.8,15.7,15.7
		C271.2,164.6,264.4,171.4,255.5,171.4z"/>
</g>
</svg>
