<?xml version="1.0" encoding="utf-8"?>
<!-- Generator: Adobe Illustrator 23.0.0, SVG Export Plug-In . SVG Version: 6.00 Build 0)  -->
<svg version="1.1" id="Capa_1" xmlns="http://www.w3.org/2000/svg" xmlns:xlink="http://www.w3.org/1999/xlink" x="0px" y="0px"
	 viewBox="0 0 512 512" style="enable-background:new 0 0 512 512;" xml:space="preserve">
<style type="text/css">
	.st0{fill:#FF0097;}
</style>
<path d="M390.2,258.2c-5.5,0-10-4.5-10-10s4.5-10,10-10h71.5c5.5,0,10,4.5,10,10s-4.5,10-10,10H390.2z"/>
<path d="M390.2,306.2c-5.5,0-10-4.5-10-10s4.5-10,10-10h71.5c5.5,0,10,4.5,10,10s-4.5,10-10,10H390.2z"/>
<path d="M390.2,354.2c-5.5,0-10-4.5-10-10s4.5-10,10-10h71.5c5.5,0,10,4.5,10,10s-4.5,10-10,10H390.2z"/>
<path d="M383.9,437.5c2.6,0,5.2,1.1,7.1,2.9c1.9,1.9,2.9,4.4,2.9,7.1s-1.1,5.2-2.9,7.1c-1.9,1.9-4.4,2.9-7.1,2.9s-5.2-1.1-7.1-2.9
	c-1.9-1.9-2.9-4.4-2.9-7.1s1.1-5.2,2.9-7.1C378.7,438.6,381.3,437.5,383.9,437.5z"/>
<path d="M355.9,109.3v25.5h140v-25.5c0-5.5-4.5-10-10-10h-120C360.4,99.3,355.9,103.8,355.9,109.3z M355.9,483c0,5.5,4.5,10,10,10
	h120c5.5,0,10-4.5,10-10v-25.5h-76c-5.5,0-10-4.5-10-10s4.5-10,10-10h76V154.8h-140V483z M237.2,491.8c1.4,0.8,3,1.2,4.7,1.2h84
	c5.5,0,10-4.5,10-10v-34h-68.1c-7,11.4-14.5,22.3-22.6,32.7c-0.9,1.2-1.8,2.3-2.8,3.5L237.2,491.8z M231.9,31v34h104V31
	c0-5.5-4.5-10-10-10h-84C236.4,21,231.9,25.5,231.9,31z M231.9,85v175.1c18,2.5,34.9,10.5,48.3,23.1c26.7,25.1,35,64.6,20.8,98.4
	l-6.5,15.4c-4.6,10.9-9.7,21.6-15.2,31.9h56.6V85H231.9z M147.4,204.9c-10.1-10.1-24.3-14.6-38.1-12.4c-2.1,13.9,2.4,28.1,12.4,38.1
	c10.1,10.1,24.3,14.6,38.1,12.4C162,229.2,157.4,215,147.4,204.9z M134,293.8c-26.7-20.9-63.9-19.2-88.6,4
	c-20.6,19.4-27.1,50-16.1,76.1l6.5,15.4c12.3,29.2,28,56.1,46.7,80.2c0.9,1.1,1.8,2.2,2.6,3.3l5.6,7c6.7,8.4,16.6,13.2,27.4,13.2
	c9.4,0,18.5-3.8,25-10.5c4.7-4.8,11.5-6.6,18.4-4.6c2.9,0.8,5.4,2.6,7.5,4.7c6.5,6.6,15.6,10.4,24.9,10.4c10.7,0,20.7-4.8,27.4-13.2
	l5.6-7c0.9-1.1,1.8-2.2,2.6-3.4c5.1-6.6,10-13.4,14.7-20.5l12.4-20c7.3-12.7,13.8-26,19.6-39.7l6.5-15.4c11-26.1,4.5-56.6-16.1-76.1
	c-24.7-23.2-61.9-24.9-88.6-4l-14,11c-1.8,2.4-4.7,3.9-7.9,3.9s-6.1-1.5-7.9-3.9L134,293.8z M118,513c-16.9,0-32.6-7.6-43.1-20.8
	l-5.6-7c-0.9-1.2-1.8-2.3-2.8-3.5c-19.7-25.4-36.3-53.9-49.3-84.7l-6.5-15.4c-14.2-33.8-5.9-73.3,20.8-98.4
	C47,268.8,67,260.3,88,259.4c21-1,41.7,5.7,58.3,18.6l1.3,1c1-5.3,2.3-10.5,4.1-15.5c-16.3-0.3-32.2-6.9-44.1-18.8
	c-16.6-16.6-22.8-40.9-16.3-63.4c0.9-3.3,3.5-5.9,6.8-6.8c22.5-6.5,46.8-0.3,63.4,16.3c9,8.9,14.9,20.2,17.4,32.1
	c3.7-1.7,8.2-1,11.2,2c3.9,3.9,3.9,10.2,0,14.1c-10.3,10.3-17.5,22.8-21.2,36.4c12.7-9,27.6-14.5,43-15.9V31c0-16.5,13.5-30,30-30
	h84c16.5,0,30,13.5,30,30v50.1c3.1-1.1,6.5-1.7,10-1.7h120c16.5,0,30,13.5,30,30V483c0,16.5-13.5,30-30,30h-120
	c-7.7,0-14.7-2.9-20-7.7c-5.3,4.8-12.3,7.7-20,7.7h-84c-7.5,0-14.6-2.8-20-7.7c-8.4,5-18,7.7-28.1,7.7c-14,0-27.7-5.5-37.9-15.2
	C145.8,507.5,132.1,513,118,513z"/>
<path class="st0" d="M148,304.7c1.8,2.4,4.7,3.9,7.9,3.9s6.1-1.5,7.9-3.9l14-11c26.7-20.9,63.9-19.2,88.6,4
	c20.6,19.4,27.1,50,16.1,76.1l-6.5,15.4c-5.8,13.8-12.4,27-19.6,39.7l-12.4,20c-4.7,7-9.6,13.9-14.7,20.5c-0.9,1.1-1.8,2.2-2.6,3.4
	l-5.6,7c-6.7,8.4-16.7,13.2-27.4,13.2c-9.3,0-18.4-3.8-24.9-10.4c-2.1-2.1-4.6-3.9-7.5-4.7c-6.9-2-13.7-0.2-18.4,4.6
	c-6.5,6.7-15.7,10.5-25,10.5c-10.7,0-20.7-4.8-27.4-13.2l-5.6-7c-0.9-1.1-1.8-2.2-2.6-3.3c-18.7-24-34.4-51-46.7-80.2l-6.5-15.4
	c-11-26.1-4.5-56.6,16.1-76.1c24.7-23.2,62-24.9,88.6-4L148,304.7z"/>
</svg>
