<?xml version="1.0" encoding="utf-8"?>
<!-- Generator: Adobe Illustrator 22.1.0, SVG Export Plug-In . SVG Version: 6.00 Build 0)  -->
<svg version="1.1" id="Capa_1" xmlns="http://www.w3.org/2000/svg" xmlns:xlink="http://www.w3.org/1999/xlink" x="0px" y="0px"
	 viewBox="0 0 442.5 442.5" style="enable-background:new 0 0 442.5 442.5;" xml:space="preserve">
<style type="text/css">
	.st0{stroke:#FFFFFF;stroke-width:6;stroke-miterlimit:10;}
</style>
<path class="st0" d="M149.7,327.1c-7.8,0-14.1-5.2-15.7-13.1c-17.2-98.2,20.9-197,96.7-250.8c3.7-2.6,8.9-3.7,13.1-2.6
	c4.7,1,8.4,4.2,10.4,8.9l11,23.5l14.1-44.9c0-0.5,0-0.5,0.5-1c2.6-6.8,7.8-12,14.6-14.6L379,1.2c5.2-2.1,11-1,15.7,2.6
	c4.2,3.7,6.3,9.4,5.7,14.6l-16.7,100.8c-20.4,116.5-116,201.7-233,207.9C150.3,327.1,150.3,327.1,149.7,327.1z M234.4,100.9
	c-52.8,46-79.9,119.1-71.1,193.8c96.1-11.5,172.4-83.6,189.1-180.2L365,40.2l-55.9,20.9l-25.6,80.5c-2.1,6.3-7.3,10.4-14.1,11
	c-6.3,0.5-12.5-3.1-15.2-8.9L234.4,100.9z"/>
<path class="st0" d="M57.8,442.5c-3.7,0-6.8-1-9.9-3.7c-6.8-5.2-7.8-15.2-2.6-21.9l175.5-221c5.2-6.8,15.2-7.8,21.9-2.6
	c6.8,5.2,7.8,15.2,2.6,21.9L69.8,436.8C67.2,440.4,62.5,442.5,57.8,442.5z"/>
</svg>
