<?xml version="1.0" encoding="utf-8"?>
<!-- Generator: Adobe Illustrator 23.0.0, SVG Export Plug-In . SVG Version: 6.00 Build 0)  -->
<svg version="1.1" id="Capa_1" xmlns="http://www.w3.org/2000/svg" xmlns:xlink="http://www.w3.org/1999/xlink" x="0px" y="0px"
	 viewBox="0 0 512 512" style="enable-background:new 0 0 512 512;" xml:space="preserve">
<style type="text/css">
	.st0{fill:#FF0097;}
</style>
<path class="st0" d="M243.1,324.5v30L203.6,386c-2,1.6-3.2,4.1-3.2,6.7V414l-17.1,12.8V350c0-4.7-3.8-8.5-8.5-8.5h-34.1v-42.6h30.6
	l23.1,23.1c1.6,1.6,3.8,2.5,6,2.5H243.1z"/>
<path class="st0" d="M431.9,307.4l-25.3,37.9c-0.9,1.4-1.4,3-1.4,4.7v30.6L376,409.8h-30.6l0,0V316c0-4.7-3.8-8.5-8.5-8.5h-25.6
	v-51.2h71.5l23.2,46.5c1.4,2.9,4.4,4.7,7.6,4.7h18.3V307.4z"/>
<path class="st0" d="M488.9,222.1h-27.6l-31.7-55.4c-1.5-2.7-4.3-4.3-7.4-4.3H371c-2.9,0-5.5,1.4-7.1,3.8L349.4,188h-21v-42.6H371
	c2.3,0,4.4-0.9,6-2.5l31.6-31.6H444c15.7,21,27.8,44.7,35.9,70.5C484.1,195,487.1,208.5,488.9,222.1z"/>
<path class="st0" d="M42.5,154.5l19.3,32.2l-20.9,20.9c-1.6,1.6-2.5,3.8-2.5,6v25.6H21.6C23.2,209.6,30.4,180.9,42.5,154.5z"/>
<path class="st0" d="M268.7,17.3v2L241,26.2c-0.9,0.2-1.9,0.6-2.7,1.2l-21.5,14.3l-29-14.5C214.4,19.1,241.7,15.9,268.7,17.3z"/>
<path d="M496.2,176.6c20.1,64.2,14,132.3-17.2,191.9S395.3,472,331.1,492.1c-24.6,7.7-49.8,11.4-74.7,11.4c-30,0-59.5-5.4-87.3-15.6
	c1.6-0.7,3.2-1.5,4.8-2.2l-7.3-15.4l0.6-1.4c49.4,20.2,105.5,23.6,158.9,6.9c59.8-18.7,108.8-59.6,137.9-115.2
	c19.9-38,28.8-79.7,26.5-121.4l0,0v-17.1h-1.6c-1.8-13.6-4.7-27.1-8.9-40.4c-8-25.7-20.2-49.5-35.9-70.5h3.7v-17H430
	c-18.4-20.3-40.3-37.3-65.3-50.4c-25.1-13.1-51.8-21.5-79-25v-10h-17.1v8.4c-27-1.4-54.3,1.8-80.8,9.9l-17.7-8.9l-7.6,15.3l3.1,1.6
	C115.5,56,75.9,92.9,50.9,137.8c-1.2-0.6-2.6-1-4-1h-8.5v17.1h3.7l0.4,0.6c-12.1,26.4-19.3,55.1-20.9,84.7h-8.7v17.1h8.4
	c0.4,21.8,3.9,43.9,10.7,65.7l-16.3,5C-25.8,194.5,48.3,53,180.8,11.5S454.8,44.1,496.2,176.6z"/>
<path d="M490.4,222.1v17.1l0,0c-0.3-5.7-0.8-11.4-1.6-17.1H490.4z"/>
<path d="M490.4,239.2h-34.1c-3.1,0-5.9-1.6-7.4-4.3l-31.7-55.4h-41.7L361,201.3c-1.6,2.4-4.3,3.8-7.1,3.8h-34.1
	c-4.7,0-8.5-3.8-8.5-8.5v-59.7c0-4.7,3.8-8.5,8.5-8.5h47.6L399,96.8c1.6-1.6,3.8-2.5,6-2.5h25c5,5.5,9.6,11.2,14,17.1h-35.4L377,143
	c-1.6,1.6-3.8,2.5-6,2.5h-42.6V188h21l14.5-21.8c1.6-2.4,4.3-3.8,7.1-3.8h51.2c3.1,0,5.9,1.6,7.4,4.3l31.7,55.4h27.6
	C489.6,227.8,490.1,233.5,490.4,239.2z"/>
<path d="M455.3,294.9c1.5,2.8,1.3,6.1-0.4,8.8l-32.7,49v31.5c0,2.3-0.9,4.4-2.5,6l-34.1,34.1c-1.6,1.6-3.8,2.5-6,2.5H337
	c-4.7,0-8.5-3.8-8.5-8.5v-93.8h-25.6c-4.7,0-8.5-3.8-8.5-8.5v-68.2c0-4.7,3.8-8.5,8.5-8.5h85.3c3.2,0,6.2,1.8,7.6,4.7l23.2,46.5
	h28.8C451,290.4,453.8,292.1,455.3,294.9z M406.6,345.3l25.3-37.9h-18.2c-3.2,0-6.2-1.8-7.6-4.7l-23.2-46.5h-71.5v51.2H337
	c4.7,0,8.5,3.8,8.5,8.5v93.8l0,0H376l29.1-29.1V350C405.1,348.4,405.6,346.7,406.6,345.3z"/>
<path d="M447.8,94.2v17.1h-3.7c-4.4-5.9-9.1-11.6-14-17.1H447.8z"/>
<path d="M285.8,68.6c0,18.9-6.9,36.2-19.4,49.3l-22,21.8l-1.6-5.3l-16.3,4.9l4.2,14.1l-11.4,11.2l-2.4-5.5l-15.7,6.8l5,11.7
	l-13.3,13.2l7.3,29.4c0.7,2.9-0.1,6-2.2,8.1l-17.1,17.1c-1.6,1.6-3.8,2.5-6,2.5c-0.4,0-0.7,0-1-0.1c-2.6-0.3-4.9-1.8-6.3-4.1
	l-24.5-40.8l-40.8-24.5c-2.3-1.4-3.8-3.7-4.1-6.3c-0.3-2.6,0.6-5.2,2.4-7.1l17.1-17.1c2.1-2.1,5.2-3,8.1-2.2l29.4,7.4l13.4-13.4
	l11.3,5l6.9-15.6l-5.3-2.4l11.4-11.4l13.7,4.1l4.9-16.4l-4.9-1.5l21-20.9C240.9,67.3,258.5,60,277.3,60l0,0
	C281.9,60.1,285.8,63.9,285.8,68.6z M254.1,105.9c7.4-7.7,12.2-17.5,13.9-28c-10.7,1.8-20.6,6.9-28.4,14.8l-75.7,75.7
	c-2.1,2.1-5.2,3-8.1,2.2l-29.4-7.4l-5.9,5.9l33.3,20c1.2,0.7,2.2,1.7,2.9,2.9l20,33.3l5.9-5.9l-7.4-29.4c-0.7-2.9,0.1-6,2.3-8.1
	L254.1,105.9z"/>
<path d="M285.8,18.9V26c0,3.9-2.7,7.3-6.5,8.3l-32.7,8.2l-24.4,16.2c-1.4,1-3.1,1.4-4.7,1.4c-1.3,0-2.6-0.3-3.8-0.9l-48.1-24
	c6.6-2.7,13.3-5.2,20.2-7.3c0.7-0.2,1.3-0.4,2-0.6l29,14.5l21.5-14.3c0.8-0.5,1.7-0.9,2.7-1.2l27.7-6.9v-2
	C274.4,17.6,280.1,18.1,285.8,18.9z"/>
<path d="M285.8,8.9v10c-5.7-0.7-11.4-1.3-17.1-1.6V8.9H285.8z"/>
<path d="M268.3,220.8c0.9,3.2,0,6.6-2.5,8.8l-18.1,16c-1.6,1.4-3.6,2.1-5.6,2.1c-0.6,0-1.3-0.1-1.9-0.2c-2.7-0.6-4.9-2.4-6-4.9
	l-28.1-65.1l13-12.9l26,60.4l5.2-4.6l-19.9-67.1l13.8-13.6L268.3,220.8z"/>
<path d="M260.1,315.9v42.6c0,2.6-1.2,5-3.2,6.7l-39.4,31.6v21.5c0,2.7-1.3,5.2-3.4,6.8L180,450.7c-1.5,1.1-3.3,1.7-5.1,1.7
	c-1.3,0-2.6-0.3-3.8-0.9c-2.9-1.5-4.7-4.4-4.7-7.6v-85.3h-34.1c-4.7,0-8.5-3.8-8.5-8.5v-59.7c0-4.7,3.8-8.5,8.5-8.5h42.6
	c2.3,0,4.4,0.9,6,2.5l23.1,23.1h47.6C256.3,307.4,260.1,311.2,260.1,315.9z M243.1,354.5v-30h-42.6c-2.3,0-4.4-0.9-6-2.5l-23.1-23.1
	h-30.6v42.6h34.1c4.7,0,8.5,3.8,8.5,8.5v76.8l17.1-12.8v-21.3c0-2.6,1.2-5,3.2-6.7L243.1,354.5z"/>
<polygon points="242.7,134.4 244.3,139.7 230.6,153.3 226.4,139.3 "/>
<polygon points="216.8,159 219.2,164.6 206.2,177.5 201.1,165.8 "/>
<polygon points="211.4,103.1 206.5,119.4 192.9,115.3 206.6,101.6 "/>
<path d="M206.6,101.6l-13.7,13.7l-66.8-20l-4.7,4.7l60.1,26.7l-12.9,12.9l-65.4-29.1c-2.6-1.1-4.4-3.5-4.9-6.2
	c-0.5-2.8,0.4-5.6,2.4-7.6l17.1-17.1c2.2-2.2,5.5-3.1,8.5-2.1L206.6,101.6z"/>
<path d="M187.9,27.2c-0.7,0.2-1.3,0.4-2,0.6c-6.9,2.2-13.7,4.6-20.2,7.3l-3.1-1.6l7.6-15.3L187.9,27.2z"/>
<polygon points="186.8,129 179.9,144.6 168.6,139.6 181.5,126.7 "/>
<path d="M166.6,470.3l7.3,15.4c-1.6,0.8-3.2,1.5-4.8,2.2c-7.4-2.7-14.7-5.8-21.8-9.2C153.6,476.2,160,473.4,166.6,470.3z"/>
<path d="M167.2,468.9l-0.6,1.4c-6.6,3.1-13,5.9-19.3,8.5c-40.9-19.5-76.8-50.1-102.6-89.9l14.3-9.3
	C85.7,420.6,123.9,451.2,167.2,468.9z"/>
<path d="M147.3,478.8c7.1,3.4,14.4,6.5,21.8,9.2c-35,16-65.8,24.1-91.2,24.1c-22.8,0-41.1-6.5-54.1-19.5
	C-22.7,446,17.1,329,120.6,208l13,11.1C39.2,329.5-2.8,441.8,35.9,480.5C55.8,500.4,95.8,499.6,147.3,478.8z"/>
<path d="M79.8,183.6c2,3.4,1.5,7.6-1.3,10.4l-23.1,23.1v30.6c0,4.7-3.8,8.5-8.5,8.5H21.3c-0.1-5.7,0-11.4,0.3-17.1h16.8v-25.6
	c0-2.3,0.9-4.4,2.5-6l20.9-20.9l-19.3-32.2c2.6-5.7,5.4-11.2,8.4-16.7c1.4,0.7,2.5,1.8,3.3,3.2L79.8,183.6z"/>
<path d="M46.9,136.8c1.4,0,2.8,0.3,4,1c-3,5.4-5.8,11-8.4,16.7l-0.4-0.6h-3.7v-17.1L46.9,136.8L46.9,136.8z"/>
<path d="M12.8,239.2h8.7c-0.3,5.7-0.4,11.4-0.3,17.1h-8.4C12.8,256.3,12.8,239.2,12.8,239.2z"/>
</svg>
