<?xml version="1.0" encoding="utf-8"?>
<!-- Generator: Adobe Illustrator 23.0.0, SVG Export Plug-In . SVG Version: 6.00 Build 0)  -->
<svg version="1.1" id="Capa_1" xmlns="http://www.w3.org/2000/svg" xmlns:xlink="http://www.w3.org/1999/xlink" x="0px" y="0px"
	 viewBox="0 0 512 512" style="enable-background:new 0 0 512 512;" xml:space="preserve">
<style type="text/css">
	.st0{fill:#FF0097;}
</style>
<path class="st0" d="M323.9,232.5c0.3,2.5,0.4,5,0.4,7.5c-0.2,31.8-22.1,59.4-53.1,66.6l-6.6,1.5v76.7c-17.4,1.1-34.8-1.3-51.2-7
	v-84.4l-2.9-2.6c-28.1-25.1-30.5-68.2-5.4-96.3c13-14.5,31.5-22.7,50.9-22.7c2.5,0,5,0.1,7.5,0.4l-39.7,39.7l7.6,52.8l52.8,7.6
	L323.9,232.5z"/>
<path d="M512,197.3v119.5h-51.2c-4.3,14.9-10.3,29.2-17.8,42.8l36.2,36.2l-84.5,84.5L358.5,444c-13.6,7.5-27.9,13.5-42.8,17.8V513
	H196.3v-51.2c-14.9-4.3-29.3-10.3-42.8-17.8l-36.2,36.2l-84.5-84.5L69,359.5c-7.5-13.6-13.5-27.9-17.8-42.8H0V197.3h51.2
	c4.3-14.9,10.3-29.3,17.8-42.8l-36.2-36.2l84.5-84.5L153.5,70c13.6-7.5,27.9-13.5,42.8-17.8V1h119.5v51.2
	c14.9,4.3,29.2,10.3,42.8,17.8l36.2-36.2l84.5,84.5L443,154.5c7.5,13.6,13.5,27.9,17.8,42.8H512z M494.9,299.7v-85.3h-47.2l-1.6-6.4
	c-4.6-17.8-11.6-34.8-21-50.5l-3.4-5.7l33.5-33.5l-60.4-60.4l-33.5,33.5l-5.7-3.4c-15.8-9.3-32.8-16.4-50.5-21l-6.4-1.7V18.1h-85.3
	v47.2l-6.4,1.6c-17.8,4.6-34.8,11.7-50.5,21l-5.7,3.4l-33.5-33.5l-60.4,60.4l33.5,33.5l-3.4,5.7c-9.3,15.8-16.4,32.8-21,50.5
	l-1.7,6.4H17.1v85.3h47.2l1.6,6.4c4.6,17.7,11.7,34.8,21,50.5l3.4,5.7l-33.5,33.5l60.4,60.4l33.5-33.5l5.7,3.4
	c15.8,9.3,32.8,16.4,50.5,21l6.4,1.6v47.2h85.3v-47.2l6.4-1.6c17.8-4.6,34.8-11.6,50.5-21l5.7-3.4l33.5,33.5l60.4-60.4l-33.5-33.5
	l3.4-5.7c9.3-15.8,16.4-32.8,21-50.5l1.6-6.4h47.3V299.7z"/>
<path d="M281.6,382.4c37.5-7.7,69.7-31.7,87.5-65.6c33-62.5,9.1-139.9-53.4-172.9s-139.9-9.1-172.9,53.4s-9.1,139.9,53.4,172.9
	v-69.4c-16.4-16-25.6-38-25.6-61c0-47.1,38.2-85.3,85.3-85.3c9.3,0,18.5,1.5,27.3,4.4l12.9,4.4l-54.3,54.3l4.6,31.7l31.7,4.5
	l54.2-54.3l4.4,12.9c3,8.8,4.5,18,4.5,27.3c-0.2,37.2-24.3,70.1-59.7,81.5v61.2H281.6z M398.8,231.4
	c14.1,78.8-38.4,154.2-117.2,168.3v0.4l-7.5,0.9l-9.6,1.2v-0.4c-2.8,0.2-5.6,0.3-8.5,0.3c-14.5,0-28.9-2.2-42.7-6.5v0.6l-11.7-4.8
	h-0.1l-5.3-2.2V389c-52-23.5-85.4-75.2-85.3-132.2c0.1-80.1,65-145,145.1-144.9C326.3,111.9,386.5,162.3,398.8,231.4z M324.3,239.9
	c0-2.5-0.1-5-0.4-7.5l-39.7,39.7l-52.8-7.6l-7.6-52.8l39.7-39.7c-2.5-0.3-5-0.4-7.5-0.4c-19.4,0-37.9,8.3-50.9,22.7
	c-25.1,28.1-22.7,71.2,5.4,96.3l2.9,2.6v84.4c16.4,5.8,33.8,8.2,51.2,7V308l6.6-1.5C302.1,299.3,324.1,271.7,324.3,239.9z"/>
</svg>
