<?xml version="1.0" encoding="utf-8"?>
<!-- Generator: Adobe Illustrator 22.1.0, SVG Export Plug-In . SVG Version: 6.00 Build 0)  -->
<svg version="1.1" id="Capa_1" xmlns="http://www.w3.org/2000/svg" xmlns:xlink="http://www.w3.org/1999/xlink" x="0px" y="0px"
	 viewBox="0 0 463.4 463.4" style="enable-background:new 0 0 463.4 463.4;" xml:space="preserve">
<style type="text/css">
	.st0{stroke:#FFFFFF;stroke-width:6;stroke-miterlimit:10;}
</style>
<rect x="216.6" y="15.7" class="st0" width="31.3" height="68.4"/>
<g>
	<path class="st0" d="M133.5,97.7H331c5.2,0,9.9-2.6,13.1-6.8s3.7-9.9,1.6-14.6C326.8,30.8,281.3,0,232.2,0s-94.6,30.8-113.4,76.3
		c-2.1,4.7-1.6,10.4,1.6,14.6C123.6,95.1,128.3,97.7,133.5,97.7z M232.2,31.3c28.2,0,54.9,13.6,71.6,35H160.7
		C177.4,44.9,204,31.3,232.2,31.3z"/>
	<path class="st0" d="M428.7,427.4c0-82-57.5-151-134.8-168.2c19.3-17.8,34.5-42.3,43.9-65.8c2.1-4.7,1.6-10.4-1.6-14.6
		c-3.1-4.2-7.8-6.8-13.1-6.8H140.3c-5.2,0-9.9,2.6-13.1,6.8c-3.1,4.2-3.7,9.9-1.6,14.6c9.9,23.5,24.6,47.5,43.9,65.3
		C92.2,275.9,34.7,344.8,34.7,426.8v20.9c0,8.9,6.8,15.7,15.7,15.7H413c4.2,0,8.4-1.6,11-4.7c3.1-3.1,4.7-7.3,4.7-11.5L428.7,427.4z
		 M165.9,203.2h132.2c-15.7,27.2-39.2,51.7-66.4,51.7C205.1,255,181.6,230.4,165.9,203.2z M66.6,432.6v-5.2
		c0-77.8,63.2-141.1,141.1-141.1h48.6c77.8,0,141.1,63.2,141.1,141.6v4.7L66.6,432.6L66.6,432.6z"/>
</g>
<path class="st0" d="M338.3,203.2H126.7c-17.8,0-31.3-13.6-31.3-31.3V97.7c0-17.8,13.6-31.3,31.3-31.3h211.6
	c17.8,0,31.3,13.6,31.3,31.3v74.2C369.6,189.6,356,203.2,338.3,203.2z M126.7,97.7L126.7,97.7v74.2h211.6V97.7H126.7z"/>
</svg>
