<?xml version="1.0" encoding="utf-8"?>
<!-- Generator: Adobe Illustrator 23.0.0, SVG Export Plug-In . SVG Version: 6.00 Build 0)  -->
<svg version="1.1" id="Capa_1" xmlns="http://www.w3.org/2000/svg" xmlns:xlink="http://www.w3.org/1999/xlink" x="0px" y="0px"
	 viewBox="0 0 512 512" style="enable-background:new 0 0 512 512;" xml:space="preserve">
<style type="text/css">
	.st0{fill:#FF0097;}
</style>
<path d="M511.2,359.9c3.5,30.5-3.4,61.2-19.5,87.3c-39.6,64.1-123.8,84-187.9,44.4c-11.4-7.5-24.5-12.1-38-13.4
	c-6.6-0.5-13.2-0.4-19.8,0.1c-13.4,1.3-26.2,5.9-37.5,13.2c-26.1,16.2-56.9,23.1-87.4,19.6c-75-8.6-128.8-76.3-120.2-151.2
	c6.5-58.8,61.7-113.8,120.6-120.1c5-0.6,10-0.8,15.1-0.9h93.9v-34.1h17.1v-17.1c0-9.4-7.6-17.1-17.1-17.1h-42.7
	c-18.8,0-34.1-15.3-34.1-34.1s15.3-34.1,34.1-34.1h136.5c9.4,0,17.1-7.6,17.1-17.1s-7.6-17.1-17.1-17.1h-42.7
	c-18.8,0-34.1-15.3-34.1-34.1V0h17.1v34.1c0,9.4,7.6,17.1,17.1,17.1h42.7c18.9,0,34.1,15.3,34.1,34.1s-15.3,34.1-34.1,34.1H187.8
	c-9.4,0-17.1,7.6-17.1,17.1c0,9.4,7.6,17.1,17.1,17.1h42.7c18.9,0,34.1,15.3,34.1,34.1v17.1h17.1v34.1h93.9c5,0,10.1,0.3,15.1,0.9
	C449.4,246.1,504.6,301.1,511.2,359.9z M464.5,455.1c22.9-25.4,33.7-59.4,29.7-93.4c-5.6-50.5-54.9-99.6-105.5-105
	c-4.4-0.5-8.8-0.7-13.2-0.7H136.6c-4.4,0-8.8,0.3-13.2,0.8c-50.6,5.4-99.9,54.5-105.5,105.1c-3.1,26.7,3,53.6,17.1,76.5
	c34.7,56.1,108.3,73.4,164.5,38.7c13.5-8.8,29-14.2,45.1-15.8c3.8-0.3,7.6-0.5,11.5-0.5c3.7,0,7.3,0.1,10.9,0.4
	c16.3,1.5,32.1,6.9,45.8,15.9C362,507.5,426,498.3,464.5,455.1z M264.6,238.9v-17.1h-17.1v17.1H264.6z"/>
<path d="M435.2,341.3c18.9,0,34.1,15.3,34.1,34.1c0,18.9-15.3,34.1-34.1,34.1c-18.8,0-34.1-15.3-34.1-34.1
	C401.1,356.6,416.4,341.3,435.2,341.3z M452.3,375.5c0-9.4-7.6-17.1-17.1-17.1c-9.4,0-17.1,7.6-17.1,17.1c0,9.4,7.6,17.1,17.1,17.1
	C444.7,392.5,452.3,384.9,452.3,375.5z"/>
<circle class="st0" cx="435.2" cy="375.5" r="17.1"/>
<path d="M375.5,290.1c18.9,0,34.1,15.3,34.1,34.1c0,18.9-15.3,34.1-34.1,34.1c-18.8,0-34.1-15.3-34.1-34.1S356.6,290.1,375.5,290.1z
	 M392.6,324.3c0-9.4-7.6-17.1-17.1-17.1c-9.4,0-17.1,7.6-17.1,17.1c0,9.4,7.6,17.1,17.1,17.1C384.9,341.3,392.6,333.7,392.6,324.3z"
	/>
<path d="M375.5,392.5c18.9,0,34.1,15.3,34.1,34.1c0,18.9-15.3,34.1-34.1,34.1c-18.8,0-34.1-15.3-34.1-34.1S356.6,392.5,375.5,392.5z
	 M392.6,426.7c0-9.4-7.6-17.1-17.1-17.1c-9.4,0-17.1,7.6-17.1,17.1c0,9.4,7.6,17.1,17.1,17.1C384.9,443.7,392.6,436.1,392.6,426.7z"
	/>
<circle class="st0" cx="375.5" cy="324.3" r="17.1"/>
<circle class="st0" cx="375.5" cy="426.7" r="17.1"/>
<path d="M315.8,341.3c18.9,0,34.1,15.3,34.1,34.1c0,18.9-15.3,34.1-34.1,34.1c-18.8,0-34.1-15.3-34.1-34.1
	C281.6,356.6,296.9,341.3,315.8,341.3z M332.8,375.5c0-9.4-7.6-17.1-17.1-17.1c-9.4,0-17.1,7.6-17.1,17.1c0,9.4,7.6,17.1,17.1,17.1
	C325.2,392.5,332.8,384.9,332.8,375.5z"/>
<circle class="st0" cx="315.8" cy="375.5" r="17.1"/>
<rect x="247.5" y="221.9" class="st0" width="17.1" height="17.1"/>
<path d="M204.8,358.4v34.1c0,4.7-3.8,8.5-8.5,8.5h-34.1v34.1c0,4.7-3.8,8.5-8.5,8.5h-34.1c-4.7,0-8.5-3.8-8.5-8.5V401H76.8
	c-4.7,0-8.5-3.8-8.5-8.5v-34.1c0-4.7,3.8-8.5,8.5-8.5H111v-34.1c0-4.7,3.8-8.5,8.5-8.5h34.1c4.7,0,8.5,3.8,8.5,8.5v34.1h34.1
	C201,349.9,204.8,353.7,204.8,358.4z M187.8,384v-17.1h-34.1c-4.7,0-8.5-3.8-8.5-8.5v-34.1H128v34.1c0,4.7-3.8,8.5-8.5,8.5H85.4V384
	h34.1c4.7,0,8.5,3.8,8.5,8.5v34.1h17.1v-34.1c0-4.7,3.8-8.5,8.5-8.5H187.8z"/>
<path class="st0" d="M187.8,366.9V384h-34.1c-4.7,0-8.5,3.8-8.5,8.5v34.1H128v-34.1c0-4.7-3.8-8.5-8.5-8.5H85.4v-17.1h34.1
	c4.7,0,8.5-3.8,8.5-8.5v-34.1h17.1v34.1c0,4.7,3.8,8.5,8.5,8.5H187.8z"/>
</svg>
