<?xml version="1.0" encoding="utf-8"?>
<!-- Generator: Adobe Illustrator 23.0.0, SVG Export Plug-In . SVG Version: 6.00 Build 0)  -->
<svg version="1.1" id="Capa_1" xmlns="http://www.w3.org/2000/svg" xmlns:xlink="http://www.w3.org/1999/xlink" x="0px" y="0px"
	 viewBox="0 0 512 512" style="enable-background:new 0 0 512 512;" xml:space="preserve">
<style type="text/css">
	.st0{fill:#FF0097;}
</style>
<path class="st0" d="M409,88.5v368c0,9.1-7.4,16.5-16.5,16.5h-272c-9.1,0-16.5-7.4-16.5-16.5v-368c0-9.1,7.4-16.5,16.5-16.5H177v17
	h-48.5c-4.1,0-7.5,3.4-7.5,7.5v352c0,4.1,3.4,7.5,7.5,7.5h256c4.1,0,7.5-3.4,7.5-7.5v-352c0-4.1-3.4-7.5-7.5-7.5H336V72h56.5
	C401.6,72,409,79.4,409,88.5z"/>
<path d="M424,88.5v368c0,17.4-14.1,31.5-31.5,31.5h-272c-17.4,0-31.5-14.1-31.5-31.5v-368C89,71.1,103.1,57,120.5,57h57.7
	c3.1-9.3,11.9-16,22.3-16h24.4c7.4-10,19.1-16,31.6-16c12.4,0,24.2,6,31.6,16h24.4c10.3,0,19.1,6.7,22.3,16h57.7
	C409.9,57,424,71.1,424,88.5z M409,456.5v-368c0-9.1-7.4-16.5-16.5-16.5H336v17h48.5c4.1,0,7.5,3.4,7.5,7.5v352
	c0,4.1-3.4,7.5-7.5,7.5h-256c-4.1,0-7.5-3.4-7.5-7.5v-352c0-4.1,3.4-7.5,7.5-7.5H177V72h-56.5c-9.1,0-16.5,7.4-16.5,16.5v368
	c0,9.1,7.4,16.5,16.5,16.5h272C401.6,473,409,465.6,409,456.5z M377,441V104h-42.2c-3.1,9.3-11.9,16-22.3,16h-112
	c-10.3,0-19.1-6.7-22.3-16H136v337H377z M321,96.5L321,96.5L321,96.5v-32c0-4.7-3.8-8.5-8.5-8.5h-28.4c-2.7,0-5.1-1.4-6.5-3.7
	c-4.5-7.7-12.3-12.3-21.1-12.3c-8.7,0-16.6,4.6-21.1,12.3c-1.3,2.3-3.8,3.7-6.5,3.7h-28.4c-4.7,0-8.5,3.8-8.5,8.5v32l0,0l0,0
	c0,4.7,3.8,8.5,8.5,8.5h112C317.2,105,321,101.2,321,96.5z"/>
<path d="M344.5,209c4.1,0,7.5,3.4,7.5,7.5s-3.4,7.5-7.5,7.5h-80c-4.1,0-7.5-3.4-7.5-7.5s3.4-7.5,7.5-7.5H344.5z"/>
<path d="M344.5,289c4.1,0,7.5,3.4,7.5,7.5s-3.4,7.5-7.5,7.5h-80c-4.1,0-7.5-3.4-7.5-7.5s3.4-7.5,7.5-7.5H344.5z"/>
<path d="M344.5,369c4.1,0,7.5,3.4,7.5,7.5s-3.4,7.5-7.5,7.5h-80c-4.1,0-7.5-3.4-7.5-7.5s3.4-7.5,7.5-7.5H344.5z"/>
<path d="M312.5,177c4.1,0,7.5,3.4,7.5,7.5s-3.4,7.5-7.5,7.5h-48c-4.1,0-7.5-3.4-7.5-7.5s3.4-7.5,7.5-7.5H312.5z"/>
<path d="M312.5,257c4.1,0,7.5,3.4,7.5,7.5s-3.4,7.5-7.5,7.5h-48c-4.1,0-7.5-3.4-7.5-7.5s3.4-7.5,7.5-7.5H312.5z"/>
<path d="M312.5,337c4.1,0,7.5,3.4,7.5,7.5s-3.4,7.5-7.5,7.5h-48c-4.1,0-7.5-3.4-7.5-7.5s3.4-7.5,7.5-7.5H312.5z"/>
<path d="M264,64.5v16c0,4.1-3.4,7.5-7.5,7.5s-7.5-3.4-7.5-7.5v-16c0-4.1,3.4-7.5,7.5-7.5S264,60.4,264,64.5z"/>
<path d="M237.8,171.2c2.9,2.9,2.9,7.7,0,10.6l-40,40c-1.5,1.5-3.4,2.2-5.3,2.2s-3.8-0.7-5.3-2.2l-24-24c-2.9-2.9-2.9-7.7,0-10.6
	c2.9-2.9,7.7-2.9,10.6,0l18.7,18.7l34.7-34.7C230.1,168.3,234.9,168.3,237.8,171.2z"/>
<path d="M237.8,251.2c2.9,2.9,2.9,7.7,0,10.6l-40,40c-1.5,1.5-3.4,2.2-5.3,2.2s-3.8-0.7-5.3-2.2l-24-24c-2.9-2.9-2.9-7.7,0-10.6
	s7.7-2.9,10.6,0l18.7,18.7l34.7-34.7C230.1,248.3,234.9,248.3,237.8,251.2z"/>
<path d="M237.8,331.2c2.9,2.9,2.9,7.7,0,10.6l-40,40c-1.5,1.5-3.4,2.2-5.3,2.2s-3.8-0.7-5.3-2.2l-24-24c-2.9-2.9-2.9-7.7,0-10.6
	s7.7-2.9,10.6,0l18.7,18.7l34.7-34.7C230.1,328.3,234.9,328.3,237.8,331.2z"/>
</svg>
